<?xml version="1.0" encoding="UTF-8" standalone="no"?>
<svg
   width="32px"
   height="32px"
   viewBox="0 0 32 32"
   version="1.1"
   id="svg1"
   sodipodi:docname="favicon-32x32.svg"
   inkscape:version="1.4 (e7c3feb100, 2024-10-09)"
   xmlns:inkscape="http://www.inkscape.org/namespaces/inkscape"
   xmlns:sodipodi="http://sodipodi.sourceforge.net/DTD/sodipodi-0.dtd"
   xmlns="http://www.w3.org/2000/svg"
   xmlns:svg="http://www.w3.org/2000/svg">
  <defs
     id="defs1" />
  <sodipodi:namedview
     id="namedview1"
     pagecolor="#ffffff"
     bordercolor="#000000"
     borderopacity="0.25"
     inkscape:showpageshadow="2"
     inkscape:pageopacity="0.0"
     inkscape:pagecheckerboard="0"
     inkscape:deskcolor="#d1d1d1"
     inkscape:zoom="12.794213"
     inkscape:cx="-12.818295"
     inkscape:cy="7.8941938"
     inkscape:window-width="3440"
     inkscape:window-height="1367"
     inkscape:window-x="0"
     inkscape:window-y="0"
     inkscape:window-maximized="1"
     inkscape:current-layer="Page-1" />
  <title
     id="title1">Group</title>
  <g
     id="Page-1"
     stroke="none"
     stroke-width="1"
     fill="none"
     fill-rule="evenodd">
    <g
       id="Group">
      <rect
         id="Rectangle"
         fill="#E5261F"
         x="0"
         y="0"
         width="32"
         height="32"
         rx="3" />
      <path
         d="m 16.08,25.336 c 1.072,0 2.056,-0.172 2.952,-0.516 0.896,-0.344 1.62,-0.86 2.172,-1.548 0.552,-0.688 0.828,-1.56 0.828,-2.616 0,-0.864 -0.184,-1.608 -0.552,-2.232 -0.368,-0.624 -0.856,-1.184 -1.464,-1.68 -0.608,-0.496 -1.296,-0.992 -2.064,-1.488 -0.88,-0.608 -1.628,-1.128 -2.244,-1.56 -0.616,-0.432 -1.084,-0.876 -1.404,-1.332 -0.32,-0.456 -0.48,-1.004 -0.48,-1.644 0,-0.768 0.248,-1.368 0.744,-1.8 0.496,-0.432 1.128,-0.648 1.896,-0.648 0.848,0 1.564,0.252 2.148,0.756 0.584,0.504 1.036,1.148 1.356,1.932 0.32,0.784 0.512,1.592 0.576,2.424 v 0 h 0.552 c 0,-1.12 0.004,-2.024 0.012,-2.712 0.008,-0.688 0.024,-1.244 0.048,-1.668 L 21.16992,8.7568 C 21.18784,8.4368 21.2032,8.1552 21.216,7.912 v 0 H 20.664 C 20.568,8.616 20.392,8.968 20.136,8.968 20.024,8.968 19.908,8.94 19.788,8.884 19.668,8.828 19.512,8.744 19.32,8.632 18.952,8.408 18.512,8.196 18,7.996 c -0.512,-0.2 -1.24,-0.3 -2.184,-0.3 -0.928,0 -1.804,0.156 -2.628,0.468 -0.824,0.312 -1.488,0.792 -1.992,1.44 -0.504,0.648 -0.756,1.476 -0.756,2.484 0,0.88 0.196,1.64 0.588,2.28 0.392,0.64 0.916,1.208 1.572,1.704 0.656,0.496 1.36,0.992 2.112,1.488 1.056,0.688 1.92,1.356 2.592,2.004 0.672,0.648 1.008,1.468 1.008,2.46 0,0.896 -0.288,1.568 -0.864,2.016 -0.576,0.448 -1.28,0.672 -2.112,0.672 -1.024,0 -1.844,-0.28 -2.46,-0.84 -0.616,-0.56 -1.072,-1.3 -1.368,-2.22 -0.296,-0.92 -0.476,-1.908 -0.54,-2.964 v 0 h -0.552 c 0,1.264 -0.004,2.308 -0.012,3.132 -0.008,0.824 -0.016,1.492 -0.024,2.004 -0.008,0.512 -0.028,0.96 -0.06,1.344 v 0 h 0.552 c 0.096,-0.704 0.272,-1.056 0.528,-1.056 0.192,0 0.464,0.112 0.816,0.336 0.4,0.208 0.896,0.408 1.488,0.6 0.592,0.192 1.384,0.288 2.376,0.288 z"
         id="S"
         fill="#ffffff"
         fill-rule="nonzero"
         style="display:none" />
    </g>
    <text
       xml:space="preserve"
       style="font-style:normal;font-variant:normal;font-weight:normal;font-stretch:normal;font-size:37.3333px;font-family:'DejaVu Serif';-inkscape-font-specification:'DejaVu Serif, Normal';font-variant-ligatures:normal;font-variant-caps:normal;font-variant-numeric:normal;font-variant-east-asian:normal;text-align:start;writing-mode:lr-tb;direction:ltr;text-anchor:start;fill:#ffffff;fill-opacity:1;stroke-width:0.721"
       x="3.2045739"
       y="29.700928"
       id="text1"><tspan
         sodipodi:role="line"
         id="tspan1"
         x="3.2045739"
         y="29.700928">L</tspan></text>
  </g>
</svg>
